<?xml version="1.0" encoding="UTF-8" standalone="no"?>
<!-- Uploaded to: SVG Repo, www.svgrepo.com, Generator: SVG Repo Mixer Tools -->

<svg
   width="800px"
   height="800px"
   viewBox="0 0 48 48"
   fill="none"
   version="1.1"
   id="svg10"
   sodipodi:docname="terminal-svgrepo-com.svg"
   inkscape:version="1.1.2 (0a00cf5339, 2022-02-04)"
   xmlns:inkscape="http://www.inkscape.org/namespaces/inkscape"
   xmlns:sodipodi="http://sodipodi.sourceforge.net/DTD/sodipodi-0.dtd"
   xmlns="http://www.w3.org/2000/svg"
   xmlns:svg="http://www.w3.org/2000/svg">
  <defs
     id="defs14" />
  <sodipodi:namedview
     id="namedview12"
     pagecolor="#ffffff"
     bordercolor="#666666"
     borderopacity="1.0"
     inkscape:pageshadow="2"
     inkscape:pageopacity="0.0"
     inkscape:pagecheckerboard="0"
     showgrid="false"
     inkscape:zoom="0.64611882"
     inkscape:cx="296.38511"
     inkscape:cy="328.88688"
     inkscape:window-width="960"
     inkscape:window-height="706"
     inkscape:window-x="226"
     inkscape:window-y="218"
     inkscape:window-maximized="0"
     inkscape:current-layer="svg10"
     inkscape:snap-bbox="true"
     inkscape:snap-global="false" />
  <rect
     width="48"
     height="48"
     fill="#ffffff"
     fill-opacity="0.01"
     id="rect2"
     x="0"
     y="0"
     style="stroke-width:1" />
  <rect
     x="4"
     y="8"
     width="40"
     height="32"
     rx="2"
     fill="#2F88FF"
     stroke="#000000"
     stroke-width="4"
     stroke-linejoin="round"
     id="rect4" />
  <path
     d="M12 18L19 24L12 30"
     stroke="white"
     stroke-width="4"
     stroke-linecap="round"
     stroke-linejoin="round"
     id="path6" />
  <path
     d="M23 32H36"
     stroke="white"
     stroke-width="4"
     stroke-linecap="round"
     stroke-linejoin="round"
     id="path8" />
  <g
     id="g206"
     transform="matrix(0.05019962,0,0,0.049265,19.652051,-0.23909882)">
    <path
       style="fill:#1eb615"
       d="m 478.54,338.879 c -19.344,0 -19.996,13.029 -38.304,18.442 -3.225,0.953 -6.683,1.225 -10.209,1.225 -24.599,0 -44.525,-19.943 -44.527,-44.539 0.002,-24.598 19.928,-44.541 44.527,-44.541 3.523,0 6.984,0.27 10.209,1.223 18.31,5.415 18.961,18.445 38.304,18.442 14.756,0.002 22.458,-10.755 23.01,-23.206 v -95.386 c 0,-24.304 -19.703,-44.008 -44.009,-44.008 h -93.304 c -13.051,0 -24.651,-7.721 -24.65,-23.045 -10e-4,-19.343 13.029,-19.994 18.442,-38.304 0.954,-3.225 1.224,-6.683 1.224,-10.209 0,-24.598 -19.944,-44.524 -44.541,-44.526 -24.596,0.002 -44.539,19.928 -44.539,44.526 0,3.524 0.271,6.984 1.224,10.209 5.415,18.308 18.442,18.961 18.442,38.304 0,15.324 -9.336,23.045 -24.65,23.045 h -94.648 c -24.306,0 -44.009,19.704 -44.009,44.008 v 93.977 h -10e-4 c 0,13.051 -7.721,24.651 -23.045,24.649 -19.344,0.002 -19.994,-13.029 -38.304,-18.442 -3.225,-0.953 -6.683,-1.223 -10.209,-1.223 -24.599,0 -44.524,19.943 -44.526,44.541 0.002,24.596 19.927,44.539 44.526,44.539 3.525,0 6.984,-0.27 10.209,-1.223 18.309,-5.415 18.96,-18.445 38.304,-18.445 15.324,0 23.045,9.337 23.045,24.651 h 10e-4 v 93.977 c 0,24.306 19.703,44.008 44.009,44.008 h 94.648 c 15.314,0 24.65,-7.721 24.65,-23.045 0,-19.343 -13.029,-19.994 -18.442,-38.304 -0.953,-3.225 -1.224,-6.682 -1.224,-10.209 0,-24.598 19.943,-44.524 44.539,-44.526 24.597,0.002 44.541,19.928 44.541,44.526 0,3.524 -0.27,6.984 -1.224,10.209 -5.415,18.31 -18.443,18.961 -18.442,38.304 -10e-4,15.326 11.599,23.046 24.65,23.046 h 93.304 c 24.306,0 44.009,-19.702 44.009,-44.008 v -95.1 c -0.367,-14.656 -8.057,-23.562 -23.01,-23.562 z"
       id="path189" />
    <path
       d="m 165.395,272.41 c -5.77,0 -10.449,-4.678 -10.449,-10.449 v -65.768 c 0,-22.744 18.504,-41.247 41.248,-41.247 h 27.756 c 5.771,0 10.449,4.678 10.449,10.449 0,5.771 -4.678,10.449 -10.449,10.449 h -27.756 c -11.221,0 -20.35,9.128 -20.35,20.349 v 65.768 c 0,5.771 -4.679,10.449 -10.449,10.449 z"
       id="path191" />
    <path
       d="m 257.754,175.843 h -0.245 c -5.77,0 -10.449,-4.678 -10.449,-10.449 0,-5.771 4.679,-10.449 10.449,-10.449 h 0.245 c 5.77,0 10.449,4.678 10.449,10.449 0,5.771 -4.679,10.449 -10.449,10.449 z"
       id="path193" />
    <path
       d="m 457.541,512 h -93.304 c -9.19,0 -17.706,-2.933 -23.98,-8.258 -7.17,-6.086 -11.12,-15.048 -11.119,-25.236 -10e-4,-14.63 6.141,-22.048 11.076,-28.01 3.236,-3.909 6.03,-7.285 7.796,-13.257 0.543,-1.833 0.795,-4.135 0.795,-7.245 0,-18.789 -15.294,-34.076 -34.093,-34.077 -18.796,0.001 -34.089,15.289 -34.089,34.077 0,3.109 0.253,5.411 0.795,7.246 1.765,5.971 4.56,9.347 7.796,13.257 4.935,5.961 11.076,13.38 11.076,28.01 0,20.66 -13.449,33.494 -35.099,33.494 h -94.648 c -30.028,0 -54.458,-24.43 -54.458,-54.457 v -93.977 c -10e-4,-12.481 -6.055,-14.202 -12.597,-14.202 -7.103,0 -9.637,2.097 -14.685,6.277 -4.715,3.903 -10.581,8.76 -20.656,11.739 -3.813,1.127 -7.997,1.652 -13.172,1.652 -30.311,0 -54.973,-24.667 -54.975,-54.987 0.002,-30.323 24.664,-54.991 54.975,-54.991 5.174,0 9.359,0.525 13.17,1.651 10.077,2.98 15.943,7.837 20.658,11.739 5.047,4.179 7.581,6.276 14.684,6.275 11.371,0 12.597,-9.931 12.597,-14.2 l 10e-4,-93.977 c 0,-30.028 24.43,-54.457 54.458,-54.457 h 94.648 c 12.48,0 14.201,-6.054 14.201,-12.596 0,-7.103 -2.098,-9.637 -6.277,-14.686 -3.902,-4.715 -8.758,-10.581 -11.737,-20.654 -1.127,-3.815 -1.652,-8 -1.652,-13.172 0,-30.311 24.668,-54.973 54.987,-54.975 30.323,0.002 54.991,24.664 54.991,54.975 0,5.176 -0.526,9.361 -1.653,13.173 -2.979,10.074 -7.836,15.941 -11.737,20.656 -4.179,5.048 -6.276,7.581 -6.276,14.684 0,4.122 1.225,7.165 3.743,9.303 2.503,2.124 6.216,3.294 10.458,3.294 h 93.304 c 30.028,0 54.458,24.429 54.458,54.457 v 95.384 c 0,0.155 -0.003,0.308 -0.01,0.462 -0.865,19.544 -14.617,33.193 -33.444,33.193 -14.635,10e-4 -22.054,-6.141 -28.017,-11.076 -3.908,-3.236 -7.284,-6.031 -13.255,-7.797 -1.831,-0.541 -4.134,-0.793 -7.245,-0.793 -18.789,0 -34.076,15.294 -34.078,34.093 0.002,18.796 15.289,34.089 34.078,34.089 3.106,0 5.409,-0.253 7.247,-0.796 5.968,-1.765 9.345,-4.56 13.253,-7.795 5.962,-4.935 13.381,-11.076 28.013,-11.076 20.115,0 32.935,12.933 33.456,33.751 0.002,0.087 0.003,0.174 0.003,0.261 v 95.1 C 511.999,487.57 487.569,512 457.541,512 Z M 314.712,375.018 c 30.323,0.002 54.991,24.664 54.991,54.975 0,5.176 -0.526,9.362 -1.653,13.173 -2.979,10.074 -7.836,15.941 -11.737,20.656 -4.179,5.048 -6.276,7.581 -6.276,14.684 0,4.123 1.225,7.165 3.743,9.303 2.503,2.124 6.216,3.294 10.458,3.294 h 93.304 c 18.505,0 33.56,-15.055 33.56,-33.559 v -94.959 c -0.33,-11.646 -6.231,-13.256 -12.561,-13.256 -7.104,0 -9.638,2.097 -14.687,6.277 -4.714,3.902 -10.581,8.758 -20.654,11.737 -3.817,1.128 -8.002,1.653 -13.171,1.653 -30.311,0 -54.974,-24.667 -54.976,-54.987 0.002,-30.323 24.665,-54.991 54.976,-54.991 5.174,0 9.359,0.525 13.17,1.651 10.076,2.98 15.944,7.836 20.658,11.738 5.048,4.18 7.582,6.276 14.685,6.276 10.284,0 12.298,-8.052 12.562,-13.01 V 170.54 c 0,-18.505 -15.055,-33.559 -33.56,-33.559 H 364.24 c -9.19,0 -17.706,-2.933 -23.98,-8.258 -7.17,-6.085 -11.12,-15.048 -11.119,-25.236 -0.001,-14.63 6.141,-22.048 11.076,-28.01 3.236,-3.909 6.03,-7.285 7.796,-13.257 0.543,-1.833 0.795,-4.135 0.795,-7.245 0,-18.788 -15.294,-34.076 -34.093,-34.077 -18.796,0.001 -34.089,15.289 -34.089,34.077 0,3.109 0.253,5.412 0.795,7.246 1.765,5.97 4.56,9.346 7.796,13.255 4.935,5.961 11.076,13.381 11.076,28.012 0,20.66 -13.449,33.494 -35.099,33.494 h -94.648 c -18.505,0 -33.56,15.055 -33.56,33.559 v 93.977 c -0.002,20.665 -13.774,35.098 -33.491,35.098 -14.635,0.002 -22.054,-6.14 -28.016,-11.076 -3.908,-3.236 -7.285,-6.031 -13.256,-7.796 -1.831,-0.541 -4.134,-0.794 -7.245,-0.794 -18.788,0 -34.075,15.294 -34.077,34.093 0.002,18.796 15.289,34.089 34.077,34.089 3.112,0 5.415,-0.252 7.247,-0.794 5.97,-1.765 9.345,-4.56 13.255,-7.796 5.961,-4.935 13.38,-11.078 28.012,-11.078 20.66,0 33.494,13.45 33.494,35.1 l 0.001,93.977 c 0,18.504 15.055,33.559 33.56,33.559 h 94.648 c 12.48,0 14.201,-6.054 14.201,-12.596 0,-7.103 -2.097,-9.637 -6.276,-14.684 -3.902,-4.715 -8.759,-10.582 -11.738,-20.658 -1.127,-3.814 -1.652,-7.999 -1.652,-13.171 -0.006,-30.309 24.662,-54.97 54.982,-54.973 z"
       id="path195" />
  </g>
</svg>
